<svg width="32" height="32" viewBox="0 0 32 32" xmlns="http://www.w3.org/2000/svg">
  <defs>
    <linearGradient id="bgGradient" x1="0%" y1="0%" x2="100%" y2="100%">
      <stop offset="0%" style="stop-color:#3B82F6;stop-opacity:1" />
      <stop offset="100%" style="stop-color:#1E40AF;stop-opacity:1" />
    </linearGradient>
    <linearGradient id="brainGradient" x1="0%" y1="0%" x2="100%" y2="100%">
      <stop offset="0%" style="stop-color:#60A5FA;stop-opacity:1" />
      <stop offset="100%" style="stop-color:#3B82F6;stop-opacity:1" />
    </linearGradient>
  </defs>
  
  <!-- Background with rounded corners -->
  <rect width="32" height="32" rx="6" ry="6" fill="url(#bgGradient)"/>
  
  <!-- Head outline -->
  <path d="M8 12 C8 8, 10 6, 14 6 C18 6, 20 8, 20 12 C20 16, 18 18, 14 18 C12 20, 10 20, 8 18 C6 16, 6 14, 8 12 Z" 
        fill="none" 
        stroke="white" 
        stroke-width="1.5" 
        stroke-linecap="round" 
        stroke-linejoin="round"/>
  
  <!-- Brain -->
  <path d="M10 10 C10 8, 12 8, 14 8 C16 8, 18 8, 18 10 C18 12, 16 14, 14 14 C12 14, 10 12, 10 10 Z" 
        fill="url(#brainGradient)"/>
  
  <!-- Brain details -->
  <path d="M12 9 C12 8.5, 12.5 8, 13 8 C13.5 8, 14 8.5, 14 9" 
        fill="none" 
        stroke="white" 
        stroke-width="0.5"/>
  <path d="M14 10 C14 9.5, 14.5 9, 15 9 C15.5 9, 16 9.5, 16 10" 
        fill="none" 
        stroke="white" 
        stroke-width="0.5"/>
</svg>
