<svg width="64" height="64" viewBox="0 0 64 64" fill="none" xmlns="http://www.w3.org/2000/svg">
  <defs>
    <linearGradient id="blueGradient" x1="0%" y1="0%" x2="100%" y2="100%">
      <stop offset="0%" style="stop-color:#3B82F6;stop-opacity:1" />
      <stop offset="50%" style="stop-color:#2563EB;stop-opacity:1" />
      <stop offset="100%" style="stop-color:#1D4ED8;stop-opacity:1" />
    </linearGradient>
    <filter id="softBlur" x="-20%" y="-20%" width="140%" height="140%">
      <feGaussianBlur stdDeviation="1" result="coloredBlur"/>
      <feMerge> 
        <feMergeNode in="coloredBlur"/>
        <feMergeNode in="SourceGraphic"/>
      </feMerge>
    </filter>
  </defs>
  
  <!-- Background circle -->
  <circle cx="32" cy="32" r="30" fill="url(#blueGradient)" stroke="none"/>
  
  <!-- Five-petal flower/star symbol -->
  <g filter="url(#softBlur)" opacity="0.9">
    <!-- Central circle -->
    <circle cx="32" cy="32" r="4" fill="white" opacity="0.8"/>
    
    <!-- Five petals arranged symmetrically -->
    <path d="M32 12C32 12 28 16 28 20C28 24 32 28 32 28C32 28 36 24 36 20C36 16 32 12 32 12Z" 
          fill="white" 
          opacity="0.7"/>
    
    <path d="M52 32C52 32 48 28 44 28C40 28 36 32 36 32C36 32 40 36 44 36C48 36 52 32 52 32Z" 
          fill="white" 
          opacity="0.7"/>
    
    <path d="M32 52C32 52 28 48 28 44C28 40 32 36 32 36C32 36 36 40 36 44C36 48 32 52 32 52Z" 
          fill="white" 
          opacity="0.7"/>
    
    <path d="M12 32C12 32 16 28 20 28C24 28 28 32 28 32C28 32 24 36 20 36C16 36 12 32 12 32Z" 
          fill="white" 
          opacity="0.7"/>
    
    <path d="M45 19C45 19 41 15 37 15C33 15 29 19 29 19C29 19 33 23 37 23C41 23 45 19 45 19Z" 
          fill="white" 
          opacity="0.7"/>
    
    <path d="M45 45C45 45 41 49 37 49C33 49 29 45 29 45C29 45 33 41 37 41C41 41 45 45 45 45Z" 
          fill="white" 
          opacity="0.7"/>
    
    <path d="M19 19C19 19 15 15 11 15C7 15 3 19 3 19C3 19 7 23 11 23C15 23 19 19 19 19Z" 
          fill="white" 
          opacity="0.7"/>
    
    <path d="M19 45C19 45 15 49 11 49C7 49 3 45 3 45C3 45 7 41 11 41C15 41 19 45 19 45Z" 
          fill="white" 
          opacity="0.7"/>
  </g>
</svg>